<svg id="Layer_1" data-name="Layer 1" xmlns="http://www.w3.org/2000/svg" viewBox="0 0 447.21 60"><defs><style>.cls-1{fill:#fff;}</style></defs><rect class="cls-1" x="248.9" width="1.51" height="60"/><rect class="cls-1" x="248.91" width="1.51" height="60"/><polygon class="cls-1" points="52.12 0 37.57 37.5 22.87 0 11.24 0 0 60 11.99 60 19.11 22.43 32.99 60 42 60 55.88 22.43 63 60 75.36 60 63.75 0 52.12 0"/><rect class="cls-1" x="78.36" width="11.24" height="60"/><polygon class="cls-1" points="93.28 0 93.28 9.74 106.49 9.74 106.49 60 117.65 60 117.65 9.74 130.85 9.74 130.85 0 93.28 0"/><path class="cls-1" d="M155.78,74.45H144.54v-60h26.69a22.72,22.72,0,0,1,5.4,1.06,18.07,18.07,0,0,1,7.51,5q3.74,3.9,3.73,11.24,0,7.65-4,11.55a18.38,18.38,0,0,1-8.17,5,26,26,0,0,1-6.08,1.13l20,25.05H176l-18.3-24.76V38.89l11.17-.07h.61a7.77,7.77,0,0,0,4.65-1.72,6.41,6.41,0,0,0,2.54-5.4,6.87,6.87,0,0,0-2.1-5.17,8.18,8.18,0,0,0-5.7-2H155.78Z" transform="translate(-10 -14.45)"/><polygon class="cls-1" points="179.54 0 214.25 0 214.25 9.74 190.78 9.74 190.78 25.12 214.03 25.12 214.03 34.86 190.78 34.86 190.78 50.26 214.25 50.26 214.25 60 179.54 60 179.54 0"/><path class="cls-1" d="M324.63,25v6.46h-17.9V41h13.4v6.45h-13.4V65.17h-7.68V25Z" transform="translate(-10 -14.45)"/><path class="cls-1" d="M334.9,24.47v6.45H328V24.47Zm0,11.79V65.17H328V36.26Z" transform="translate(-10 -14.45)"/><path class="cls-1" d="M370.81,34.7l-7.12,1.89c-1.77-4-4.05-5.67-8.06-5.67-5.28,0-8.45,5.06-8.45,14.57,0,8.45,3.17,13.79,8.51,13.79,4.83,0,8.17-3.12,8.39-8h-7.61V44.88h15V65.17h-5.56V61.06a12.72,12.72,0,0,1-10.46,4.67c-10.06,0-15.95-7.62-15.95-20,0-12.84,5.78-21.24,16.73-21.24C363.36,24.47,368.64,28,370.81,34.7Z" transform="translate(-10 -14.45)"/><path class="cls-1" d="M385.45,25V41h15.46V25h7.67V65.17h-7.67V47.93H385.45V65.17h-7.68V25Z" transform="translate(-10 -14.45)"/><path class="cls-1" d="M441.07,25v6.45H430.56V65.17h-7.68V31.42H412.37V25Z" transform="translate(-10 -14.45)"/><path class="cls-1" d="M449.2,25v.84h-2v5.58h-1.06V25.79h-2V25Zm2.57,0,1.93,4.87L455.57,25h1.64v6.42h-1.06V26h0L454,31.37h-.69L451.22,26h0v5.36h-1.06V25Z" transform="translate(-10 -14.45)"/></svg>